PathFileType	4	(X/Y/Z)	s02c0402.trc
DataRate	CameraRate	NumFrames	NumMarkers	Units	OrigDataRate	OrigDataStartFrame	OrigNumFrames
200	200	4	50	mm	200	1000	2000
Frame#	Time	racr			lacr			c7			jug			rlel			rdr			llel			ldr			s2			lic			ric			lasi			rasi			rpsi			lpsi			rgt			lgt			rth1			rth2			rth3			rth4			rlfc			rmfc			rsh1			rsh2			rsh3			rsh4			rlmal			rmmal			rtoe			rmt5			rmt1			lth1			lth2			lth4			lth3			llfc			lmfc			lsh1			lsh2			lsh3			lsh4			llmal			lmmal			lcal			ltoe			lmt5			SBIKE			LBIKE			RBIKE			
		X1	Y1	Z1	X2	Y2	Z2	X3	Y3	Z3	X4	Y4	Z4	X5	Y5	Z5	X6	Y6	Z6	X7	Y7	Z7	X8	Y8	Z8	X9	Y9	Z9	X10	Y10	Z10	X11	Y11	Z11	X12	Y12	Z12	X13	Y13	Z13	X14	Y14	Z14	X15	Y15	Z15	X16	Y16	Z16	X17	Y17	Z17	X18	Y18	Z18	X19	Y19	Z19	X20	Y20	Z20	X21	Y21	Z21	X22	Y22	Z22	X23	Y23	Z23	X24	Y24	Z24	X25	Y25	Z25	X26	Y26	Z26	X27	Y27	Z27	X28	Y28	Z28	X29	Y29	Z29	X30	Y30	Z30	X31	Y31	Z31	X32	Y32	Z32	X33	Y33	Z33	X34	Y34	Z34	X35	Y35	Z35	X36	Y36	Z36	X37	Y37	Z37	X38	Y38	Z38	X39	Y39	Z39	X40	Y40	Z40	X41	Y41	Z41	X42	Y42	Z42	X43	Y43	Z43	X44	Y44	Z44	X45	Y45	Z45	X46	Y46	Z46	X47	Y47	Z47	X48	Y48	Z48	X49	Y49	Z49	X50	Y50	Z50	
1000	5.0000	653.329006	1148.308537	-70.986441	667.921582	1181.204263	-452.171373	696.145382	1225.113609	-266.606901	612.927256	1107.093818	-263.963770	523.249501	926.814660	-19.486306	677.334109	863.836175	-120.881601	538.875222	990.397022	-616.666307	677.714627	867.435083	-513.902012	136.128017	1143.675100	-277.830245	273.002564	1134.307353	-419.554674	271.022283	1107.123370	-124.937557	310.090024	1096.670253	-392.694207	324.411620	1074.885360	-153.894549	170.527599	1164.549763	-221.578291	172.649661	1181.352874	-306.268807	240.587394	1018.068377	-99.633470	213.386639	1067.092248	-456.726319	300.720801	947.066174	-97.794732	358.410345	880.889126	-106.366886	379.536480	798.564935	-92.993046	388.369951	893.087421	-131.907794	413.836212	667.204478	-137.047113	400.165440	654.814953	-241.106476	395.437039	558.034966	-120.684041	395.259257	471.145681	-140.055951	354.753275	394.712589	-138.739240	406.932852	472.371938	-177.689161	312.121381	285.793463	-148.202368	318.776467	304.797271	-228.034063	509.401480	180.833949	-194.608663	400.499964	192.513663	-133.366803	428.502282	203.104084	-239.986377	329.417386	997.534280	-486.650094	409.408098	963.729446	-493.212926	430.315168	986.935186	-473.626021	461.260466	892.965320	-509.490341	532.246768	817.493877	-499.959408	537.379748	780.655914	-392.602410	464.888973	742.202492	-516.613938	406.188209	682.004229	-499.225056	319.411111	655.075070	-499.356848	420.182409	665.504912	-464.121630	221.520020	612.340819	-484.207575	238.113465	595.198536	-408.395134	146.420328	629.106522	-438.172981	295.470377	384.515973	-445.010685	216.571090	459.500426	-504.920648	-164.749959	856.897750	-317.166984	32.620592	82.751780	-515.282437	32.857476	82.312366	-115.067483	
1001	5.0050	653.941466	1148.201888	-72.684041	667.001683	1179.877644	-453.838443	695.702935	1224.383786	-268.670037	612.590300	1106.453354	-265.494321	523.385036	927.238111	-19.533310	677.389987	863.626148	-120.631496	538.331528	989.204389	-618.118818	677.357817	867.674213	-514.039597	136.072869	1143.306856	-276.547984	271.727054	1134.178134	-419.198330	271.368331	1106.047408	-124.713827	309.085800	1096.832177	-392.352339	324.815659	1073.723809	-153.703377	170.327839	1163.697895	-220.445676	171.967308	1180.693539	-304.935153	239.906593	1016.300821	-99.417881	212.558227	1067.338495	-456.540037	298.209134	944.582315	-97.069211	354.486869	877.186408	-105.586510	373.852459	794.447222	-92.230041	382.235759	891.064904	-127.612513	405.597610	662.799313	-136.151993	392.226846	650.357284	-239.946913	387.065853	553.853014	-119.537095	387.393728	466.983588	-138.993494	347.202536	390.469459	-137.689836	399.214444	468.308673	-176.488472	305.575626	281.244399	-147.391838	311.929856	300.470850	-227.141638	501.633195	173.668506	-194.949745	393.191533	186.656195	-133.186281	420.566670	196.818137	-240.436392	329.702425	1000.258104	-485.075683	410.347700	968.295574	-491.423324	430.834943	990.853828	-470.874199	462.961656	898.288885	-509.229722	535.987770	824.054118	-499.480659	541.974457	787.308537	-390.735749	469.719497	748.724744	-515.286928	411.001436	688.470936	-498.012535	324.312960	661.504499	-498.484538	425.043317	672.008284	-462.979507	226.015070	618.313319	-483.535359	242.886220	601.992216	-406.831944	150.264544	633.895715	-437.776676	303.434879	392.199053	-444.314500	224.286464	466.069645	-504.882034	-164.684006	856.715803	-317.782767	32.623341	82.746337	-515.292368	32.860831	82.311693	-115.051507	
1002	5.0100	654.656354	1148.104603	-74.462093	666.080850	1178.530499	-455.568700	695.274989	1223.692790	-270.838496	612.264139	1105.753922	-267.086710	523.505181	927.996060	-19.318692	677.485171	863.386566	-120.367742	537.690964	988.022490	-619.504013	676.788471	867.975611	-514.335211	135.853721	1142.738136	-275.224736	270.506215	1134.090034	-418.874791	271.633487	1105.155333	-124.544746	308.125379	1096.993328	-392.182837	325.032652	1072.822800	-153.613181	170.048412	1162.992429	-219.414603	171.145123	1180.252743	-303.962225	238.338022	1015.107506	-100.073601	211.791202	1067.907303	-456.514561	296.042710	942.589217	-95.647055	351.021024	873.872086	-104.817684	368.231880	790.923060	-91.468909	378.740383	886.948586	-127.526958	397.381413	658.890750	-135.246649	384.290270	646.474446	-238.893615	378.771255	550.437282	-117.859903	379.578002	463.493912	-137.650760	339.667616	386.756432	-136.650325	391.578872	464.795243	-175.253616	298.920797	277.250189	-146.579520	305.193132	296.621324	-226.162011	493.465757	167.205029	-194.429861	385.568986	181.171449	-132.991178	412.536165	190.913328	-240.591354	330.206779	1003.319873	-483.342458	411.367785	972.671098	-489.556613	431.352311	995.739134	-469.256236	466.104112	903.972524	-506.586401	540.280085	831.373789	-496.968493	544.452718	793.733826	-389.238872	474.429095	755.130970	-513.739287	415.886206	694.679211	-496.664201	329.304183	667.340017	-497.571422	429.832413	678.203893	-461.627649	230.759597	623.441555	-482.744701	247.931252	607.758919	-406.104776	154.076157	637.963744	-437.445368	314.804903	401.282835	-447.106555	232.148440	472.120776	-504.884127	-164.719615	856.932777	-317.023392	32.629573	82.728537	-515.271588	32.854552	82.310071	-115.054933	
1003	5.0150	655.274065	1148.173176	-76.290200	665.121576	1177.152921	-457.440376	694.879247	1222.940058	-273.124570	611.888312	1105.080585	-268.697709	523.745665	928.579133	-19.363751	677.572993	863.162786	-119.876807	536.977946	986.756116	-620.821041	676.355432	868.199085	-513.914116	135.521121	1142.379090	-273.906732	269.373126	1134.045584	-418.618374	271.803978	1104.718105	-124.358890	307.199361	1097.283658	-391.979400	325.121892	1071.900013	-153.377154	169.782958	1162.578356	-218.519047	170.404386	1180.008077	-303.100223	237.385081	1014.491191	-99.759790	211.304284	1068.727327	-456.520166	293.642972	940.934353	-95.109628	347.162580	871.147113	-104.270049	362.708566	787.839001	-90.778868	375.245794	883.568346	-127.009019	389.377385	655.615622	-134.393006	376.502166	643.140379	-238.014570	370.708561	547.526752	-116.758643	371.833761	460.502192	-136.593006	332.266873	383.656523	-135.494205	383.924528	461.813682	-174.139220	292.132420	273.764203	-145.757755	298.152971	293.391916	-225.228010	485.219867	160.757315	-194.844786	377.770077	176.203398	-132.837662	404.182562	185.615055	-240.782577	330.721727	1006.440609	-481.714699	412.432626	977.235834	-488.046737	432.062025	1000.648088	-467.612110	468.113799	909.492504	-505.245941	543.833589	838.071211	-495.231260	550.140537	801.953636	-386.218397	479.122224	761.242619	-512.103099	420.812468	700.437082	-495.265927	334.416700	672.497303	-496.545542	434.534671	683.987570	-459.995165	235.711611	627.929209	-481.956223	252.917036	612.803877	-405.591054	157.840089	641.327387	-437.225538	323.323123	407.506296	-445.520342	240.203656	477.707802	-504.839758	-164.886789	856.506437	-318.263494	32.619004	82.660579	-515.273817	32.849361	82.314515	-115.054449	
